<svg xmlns="http://www.w3.org/2000/svg" viewBox="0 0 113.41 21.87"><defs><style>.cls-1{fill:#f59b2f;}.cls-2{fill:#ca1517;}</style></defs><g id="Слой_2" data-name="Слой 2"><g id="Слой_1-2" data-name="Слой 1"><path class="cls-1" d="M19.54,21.87,29.77,0,40,21.87Z"/><path class="cls-2" d="M45.58,13.3l2.22,2.27.32.32m9.24-8a6.13,6.13,0,0,0-2.68-2.22,10,10,0,0,0-4.11-.78h-6l-.26,17h3.83V17.7h2.45a10,10,0,0,0,4.11-.78,6.34,6.34,0,0,0,2.68-2.22,6.07,6.07,0,0,0,.94-3.39A6.13,6.13,0,0,0,57.36,7.91ZM47.23,13.69V9.32L51,11.5Z"/><path class="cls-2" d="M113.41,13.54V9.32m-1.29,8.53,0-.41-.15-1.75-2.47-.36-2.56,2.24L102,21.87h10.49ZM109.75,4.91a10.1,10.1,0,0,0-4.17.8A6.24,6.24,0,0,0,102.86,8a6.24,6.24,0,0,0-1,3.5,6.19,6.19,0,0,0,.92,3.41,5.84,5.84,0,0,0,2.63,2.2,8,8,0,0,0,1.45.48,11.17,11.17,0,0,0,2.61.28h2.57v4h1.33v-17Zm-3.16,6.52,3.78-2.18v4.36Z"/><polygon class="cls-1" points="84.73 10.94 98.45 7.95 84.73 4.97 84.73 10.94 84.73 10.94 84.73 16.41 84.73 16.41 84.73 21.87 98.45 19.14 84.73 16.41 98.45 13.67 84.73 10.94"/><path class="cls-2" d="M20.53,4.85l-10.22,17L0,4.91Z"/><path class="cls-2" d="M81.28,4.79,71.07,21.87l-10.32-17Z"/></g></g></svg>